<svg width="1140" height="496" viewBox="0 0 1140 496" fill="none" xmlns="http://www.w3.org/2000/svg">
<g clip-path="url(#clip0_2_987)">
<rect width="1140" height="496" fill="white"/>
<rect width="1652" height="560" fill="#F06A6A"/>
<rect x="595" y="54.998" width="282" height="117" rx="56" fill="#444242"/>
<rect x="606.418" y="138.281" width="178.977" height="87.4351" rx="43.7175" transform="rotate(-37.5235 606.418 138.281)" fill="#C4C4C4"/>
<rect x="659.667" y="153.566" width="178.977" height="87.4351" rx="43.7175" transform="rotate(-37.5235 659.667 153.566)" fill="white"/>
<circle cx="317.39" cy="160.604" r="69.1859" transform="rotate(-1.59573 317.39 160.604)" fill="#C4C4C4"/>
<path d="M244.722 21.4702L248.675 163.362L364.356 109.65L244.722 21.4702Z" fill="#C4C4C4"/>
<circle cx="358.092" cy="130.228" r="69.1859" transform="rotate(-20.2586 358.092 130.228)" fill="white"/>
<path d="M244.721 21.665L293.871 154.831L386.282 66.9251L244.721 21.665Z" fill="white"/>
<path d="M373.102 426.249C366.238 379.123 398.877 335.355 446.004 328.491L486.023 322.662V322.662C492.887 369.789 460.247 413.556 413.121 420.42L373.102 426.249V426.249Z" fill="#444242"/>
<path d="M409.095 357.13L443.708 400.979L388.427 409.03L409.095 357.13Z" fill="#F06A6A"/>
<path d="M454.29 392.066L419.31 348.51L474.52 339.995L454.29 392.066Z" fill="#F06A6A"/>
<mask id="mask0_2_987" style="mask-type:alpha" maskUnits="userSpaceOnUse" x="385" y="347" width="37" height="63">
<path d="M386.887 394.521C384.468 377.913 392.297 362.175 405.6 353.717L408.598 357.441L388.738 407.229L386.887 394.521Z" fill="#FF4646" stroke="black"/>
</mask>
<g mask="url(#mask0_2_987)">
<rect x="374.019" y="346.745" width="50.4683" height="73.8641" transform="rotate(-8.28678 374.019 346.745)" fill="#F06A6A"/>
</g>
<mask id="mask1_2_987" style="mask-type:alpha" maskUnits="userSpaceOnUse" x="441" y="339" width="36" height="63">
<path d="M476.516 354.783L474.348 339.899L453.91 391.657L457.364 395.979C470.939 387.544 478.967 371.609 476.516 354.783Z" fill="#FF4646"/>
</mask>
<g mask="url(#mask1_2_987)">
<rect x="489.165" y="402.209" width="50.4682" height="73.4297" transform="rotate(171.713 489.165 402.209)" fill="#F06A6A"/>
</g>
<path d="M374.066 278H364.691V232.5H374.066V278ZM384.785 246.469L380.535 244C382.327 241.188 383.254 238.281 383.316 235.281V230H390.504V234.844C390.504 236.719 389.983 238.75 388.941 240.938C387.899 243.125 386.514 244.969 384.785 246.469ZM404.722 244.188L405.004 247.969C407.399 245.031 410.639 243.562 414.722 243.562C419.077 243.562 422.066 245.281 423.691 248.719C426.066 245.281 429.452 243.562 433.847 243.562C437.514 243.562 440.243 244.635 442.035 246.781C443.827 248.906 444.722 252.115 444.722 256.406V278H435.66V256.438C435.66 254.521 435.285 253.125 434.535 252.25C433.785 251.354 432.462 250.906 430.566 250.906C427.858 250.906 425.983 252.198 424.941 254.781L424.972 278H415.941V256.469C415.941 254.51 415.556 253.094 414.785 252.219C414.014 251.344 412.702 250.906 410.847 250.906C408.285 250.906 406.431 251.969 405.285 254.094V278H396.254V244.188H404.722ZM493.91 268.625H477.472L474.347 278H464.379L481.316 232.5H490.004L507.035 278H497.066L493.91 268.625ZM480.004 261.031H491.379L485.66 244L480.004 261.031ZM527.222 278V232.5H541.222C545.222 232.5 548.795 233.406 551.941 235.219C555.108 237.01 557.577 239.573 559.347 242.906C561.118 246.219 562.004 249.99 562.004 254.219V256.312C562.004 260.542 561.129 264.302 559.379 267.594C557.649 270.885 555.202 273.438 552.035 275.25C548.868 277.062 545.295 277.979 541.316 278H527.222ZM536.597 240.094V270.469H541.129C544.795 270.469 547.597 269.271 549.535 266.875C551.472 264.479 552.462 261.052 552.504 256.594V254.188C552.504 249.562 551.545 246.062 549.629 243.688C547.712 241.292 544.91 240.094 541.222 240.094H536.597ZM583.816 278.625C578.858 278.625 574.816 277.104 571.691 274.062C568.587 271.021 567.035 266.969 567.035 261.906V261.031C567.035 257.635 567.691 254.604 569.004 251.938C570.316 249.25 572.17 247.188 574.566 245.75C576.983 244.292 579.733 243.562 582.816 243.562C587.441 243.562 591.077 245.021 593.722 247.938C596.389 250.854 597.722 254.99 597.722 260.344V264.031H576.191C576.483 266.24 577.358 268.01 578.816 269.344C580.295 270.677 582.16 271.344 584.41 271.344C587.889 271.344 590.608 270.083 592.566 267.562L597.004 272.531C595.649 274.448 593.816 275.948 591.504 277.031C589.191 278.094 586.629 278.625 583.816 278.625ZM582.785 250.875C580.993 250.875 579.535 251.479 578.41 252.688C577.306 253.896 576.597 255.625 576.285 257.875H588.847V257.156C588.806 255.156 588.264 253.615 587.222 252.531C586.181 251.427 584.702 250.875 582.785 250.875ZM621.191 268.656C621.191 267.552 620.639 266.688 619.535 266.062C618.452 265.417 616.702 264.844 614.285 264.344C606.243 262.656 602.222 259.24 602.222 254.094C602.222 251.094 603.462 248.594 605.941 246.594C608.441 244.573 611.702 243.562 615.722 243.562C620.014 243.562 623.441 244.573 626.004 246.594C628.587 248.615 629.879 251.24 629.879 254.469H620.847C620.847 253.177 620.431 252.115 619.597 251.281C618.764 250.427 617.462 250 615.691 250C614.17 250 612.993 250.344 612.16 251.031C611.327 251.719 610.91 252.594 610.91 253.656C610.91 254.656 611.379 255.469 612.316 256.094C613.274 256.698 614.879 257.229 617.129 257.688C619.379 258.125 621.274 258.625 622.816 259.188C627.587 260.938 629.972 263.969 629.972 268.281C629.972 271.365 628.649 273.865 626.004 275.781C623.358 277.677 619.941 278.625 615.754 278.625C612.92 278.625 610.399 278.125 608.191 277.125C606.004 276.104 604.285 274.719 603.035 272.969C601.785 271.198 601.16 269.292 601.16 267.25H609.722C609.806 268.854 610.399 270.083 611.504 270.938C612.608 271.792 614.087 272.219 615.941 272.219C617.67 272.219 618.972 271.896 619.847 271.25C620.743 270.583 621.191 269.719 621.191 268.656ZM645.347 278H636.285V244.188H645.347V278ZM635.754 235.438C635.754 234.083 636.202 232.969 637.097 232.094C638.014 231.219 639.254 230.781 640.816 230.781C642.358 230.781 643.587 231.219 644.504 232.094C645.42 232.969 645.879 234.083 645.879 235.438C645.879 236.812 645.41 237.938 644.472 238.812C643.556 239.688 642.337 240.125 640.816 240.125C639.295 240.125 638.066 239.688 637.129 238.812C636.212 237.938 635.754 236.812 635.754 235.438ZM651.504 260.844C651.504 255.656 652.733 251.479 655.191 248.312C657.67 245.146 661.004 243.562 665.191 243.562C668.899 243.562 671.785 244.833 673.847 247.375L674.222 244.188H682.41V276.875C682.41 279.833 681.733 282.406 680.379 284.594C679.045 286.781 677.16 288.448 674.722 289.594C672.285 290.74 669.431 291.312 666.16 291.312C663.681 291.312 661.264 290.812 658.91 289.812C656.556 288.833 654.774 287.562 653.566 286L657.566 280.5C659.816 283.021 662.545 284.281 665.754 284.281C668.149 284.281 670.014 283.635 671.347 282.344C672.681 281.073 673.347 279.26 673.347 276.906V275.094C671.264 277.448 668.524 278.625 665.129 278.625C661.066 278.625 657.774 277.042 655.254 273.875C652.754 270.688 651.504 266.469 651.504 261.219V260.844ZM660.535 261.5C660.535 264.562 661.149 266.969 662.379 268.719C663.608 270.448 665.295 271.312 667.441 271.312C670.191 271.312 672.16 270.281 673.347 268.219V254C672.139 251.938 670.191 250.906 667.504 250.906C665.337 250.906 663.629 251.792 662.379 253.562C661.149 255.333 660.535 257.979 660.535 261.5ZM697.691 244.188L697.972 248.094C700.389 245.073 703.629 243.562 707.691 243.562C711.274 243.562 713.941 244.615 715.691 246.719C717.441 248.823 718.337 251.969 718.379 256.156V278H709.347V256.375C709.347 254.458 708.931 253.073 708.097 252.219C707.264 251.344 705.879 250.906 703.941 250.906C701.399 250.906 699.493 251.99 698.222 254.156V278H689.191V244.188H697.691ZM740.816 278.625C735.858 278.625 731.816 277.104 728.691 274.062C725.587 271.021 724.035 266.969 724.035 261.906V261.031C724.035 257.635 724.691 254.604 726.004 251.938C727.316 249.25 729.17 247.188 731.566 245.75C733.983 244.292 736.733 243.562 739.816 243.562C744.441 243.562 748.077 245.021 750.722 247.938C753.389 250.854 754.722 254.99 754.722 260.344V264.031H733.191C733.483 266.24 734.358 268.01 735.816 269.344C737.295 270.677 739.16 271.344 741.41 271.344C744.889 271.344 747.608 270.083 749.566 267.562L754.004 272.531C752.649 274.448 750.816 275.948 748.504 277.031C746.191 278.094 743.629 278.625 740.816 278.625ZM739.785 250.875C737.993 250.875 736.535 251.479 735.41 252.688C734.306 253.896 733.597 255.625 733.285 257.875H745.847V257.156C745.806 255.156 745.264 253.615 744.222 252.531C743.181 251.427 741.702 250.875 739.785 250.875ZM778.879 252.656C777.649 252.49 776.566 252.406 775.629 252.406C772.212 252.406 769.972 253.562 768.91 255.875V278H759.879V244.188H768.41L768.66 248.219C770.472 245.115 772.983 243.562 776.191 243.562C777.191 243.562 778.129 243.698 779.004 243.969L778.879 252.656Z" fill="white"/>
<circle cx="943.5" cy="448.5" r="168.5" fill="white"/>
</g>
<defs>
<clipPath id="clip0_2_987">
<rect width="1140" height="496" fill="white"/>
</clipPath>
</defs>
</svg>
