<svg width="1620" height="496" viewBox="0 0 1620 496" fill="none" xmlns="http://www.w3.org/2000/svg">
<g clip-path="url(#clip0_2_924)">
<rect width="1620" height="496" fill="white"/>
<rect width="1652" height="560" fill="#F06A6A"/>
<rect x="840.001" y="43.7534" width="349.46" height="145.292" rx="56" fill="#444242"/>
<rect x="853.982" y="147.113" width="221.803" height="108.357" rx="54.1783" transform="rotate(-37.5235 853.982 147.113)" fill="#C4C4C4"/>
<rect x="919.973" y="166.054" width="221.803" height="108.357" rx="54.1783" transform="rotate(-37.5235 919.973 166.054)" fill="white"/>
<circle cx="379.878" cy="197.796" r="94.8807" transform="rotate(-1.59573 379.878 197.796)" fill="#C4C4C4"/>
<path d="M280.222 6.98657L285.642 201.575L444.287 127.915L280.222 6.98657Z" fill="#C4C4C4"/>
<circle cx="435.695" cy="156.135" r="94.8807" transform="rotate(-20.2586 435.695 156.135)" fill="white"/>
<path d="M280.22 7.25342L347.624 189.875L474.355 69.3225L280.22 7.25342Z" fill="white"/>
<circle cx="379.877" cy="197.793" r="94.8807" transform="rotate(-1.59573 379.877 197.793)" fill="#C4C4C4"/>
<path d="M280.221 6.98389L285.642 201.572L444.286 127.912L280.221 6.98389Z" fill="#C4C4C4"/>
<circle cx="432.35" cy="156.132" r="94.8807" transform="rotate(-20.2586 432.35 156.132)" fill="white"/>
<path d="M276.875 7.24951L344.279 189.871L471.01 69.3186L276.875 7.24951Z" fill="white"/>
<path d="M526.533 458.401C518.573 403.749 556.424 352.992 611.076 345.033L667.463 336.82L668.452 343.612C676.412 398.264 638.561 449.021 583.909 456.981L527.522 465.193L526.533 458.401Z" fill="#444242"/>
<path d="M572.127 379.534L615.023 433.875L546.515 443.853L572.127 379.534Z" fill="#F06A6A"/>
<path d="M628.137 422.83L584.787 368.852L653.208 358.299L628.137 422.83Z" fill="#F06A6A"/>
<mask id="mask0_2_924" style="mask-type:alpha" maskUnits="userSpaceOnUse" x="543" y="367" width="45" height="77">
<path d="M544.487 425.888C541.477 405.22 551.244 385.638 567.823 375.145L571.649 379.899L546.845 442.078L544.487 425.888Z" fill="#FF4646" stroke="black"/>
</mask>
<g mask="url(#mask0_2_924)">
<rect x="528.659" y="366.664" width="62.5443" height="91.5384" transform="rotate(-8.28678 528.659 366.664)" fill="#F06A6A"/>
</g>
<mask id="mask1_2_924" style="mask-type:alpha" maskUnits="userSpaceOnUse" x="612" y="358" width="45" height="77">
<path d="M655.681 376.625L652.995 358.181L627.666 422.323L631.946 427.679C648.77 417.226 658.718 397.477 655.681 376.625Z" fill="#FF4646"/>
</mask>
<g mask="url(#mask1_2_924)">
<rect x="671.357" y="435.4" width="62.5443" height="91" transform="rotate(171.713 671.357 435.4)" fill="#F06A6A"/>
</g>
<path d="M516.568 312.195H502.505V243.945H516.568V312.195ZM532.646 264.898L526.271 261.195C528.958 256.976 530.349 252.617 530.443 248.117V240.195H541.224V247.461C541.224 250.273 540.443 253.32 538.88 256.601C537.318 259.883 535.24 262.648 532.646 264.898ZM562.552 261.476L562.974 267.148C566.568 262.742 571.427 260.539 577.552 260.539C584.083 260.539 588.568 263.117 591.005 268.273C594.568 263.117 599.646 260.539 606.24 260.539C611.74 260.539 615.833 262.148 618.521 265.367C621.208 268.554 622.552 273.367 622.552 279.804V312.195H608.958V279.851C608.958 276.976 608.396 274.883 607.271 273.57C606.146 272.226 604.161 271.554 601.318 271.554C597.255 271.554 594.443 273.492 592.88 277.367L592.927 312.195H579.38V279.898C579.38 276.961 578.802 274.836 577.646 273.523C576.49 272.211 574.521 271.554 571.74 271.554C567.896 271.554 565.115 273.148 563.396 276.336V312.195H549.849V261.476H562.552ZM696.333 298.133H671.677L666.99 312.195H652.036L677.443 243.945H690.474L716.021 312.195H701.068L696.333 298.133ZM675.474 286.742H692.536L683.958 261.195L675.474 286.742ZM746.302 312.195V243.945H767.302C773.302 243.945 778.661 245.304 783.38 248.023C788.13 250.711 791.833 254.554 794.49 259.554C797.146 264.523 798.474 270.179 798.474 276.523V279.664C798.474 286.008 797.161 291.648 794.536 296.586C791.943 301.523 788.271 305.351 783.521 308.07C778.771 310.789 773.411 312.164 767.443 312.195H746.302ZM760.365 255.336V300.898H767.161C772.661 300.898 776.865 299.101 779.771 295.508C782.677 291.914 784.161 286.773 784.224 280.086V276.476C784.224 269.539 782.786 264.289 779.911 260.726C777.036 257.133 772.833 255.336 767.302 255.336H760.365ZM831.193 313.133C823.755 313.133 817.693 310.851 813.005 306.289C808.349 301.726 806.021 295.648 806.021 288.054V286.742C806.021 281.648 807.005 277.101 808.974 273.101C810.943 269.07 813.724 265.976 817.318 263.82C820.943 261.633 825.068 260.539 829.693 260.539C836.63 260.539 842.083 262.726 846.052 267.101C850.052 271.476 852.052 277.679 852.052 285.711V291.242H819.755C820.193 294.554 821.505 297.211 823.693 299.211C825.911 301.211 828.708 302.211 832.083 302.211C837.302 302.211 841.38 300.32 844.318 296.539L850.974 303.992C848.943 306.867 846.193 309.117 842.724 310.742C839.255 312.336 835.411 313.133 831.193 313.133ZM829.646 271.508C826.958 271.508 824.771 272.414 823.083 274.226C821.427 276.039 820.365 278.633 819.896 282.008H838.74V280.929C838.677 277.929 837.865 275.617 836.302 273.992C834.74 272.336 832.521 271.508 829.646 271.508ZM887.255 298.179C887.255 296.523 886.427 295.226 884.771 294.289C883.146 293.32 880.521 292.461 876.896 291.711C864.833 289.179 858.802 284.054 858.802 276.336C858.802 271.836 860.661 268.086 864.38 265.086C868.13 262.054 873.021 260.539 879.052 260.539C885.49 260.539 890.63 262.054 894.474 265.086C898.349 268.117 900.286 272.054 900.286 276.898H886.74C886.74 274.961 886.115 273.367 884.865 272.117C883.615 270.836 881.661 270.195 879.005 270.195C876.724 270.195 874.958 270.711 873.708 271.742C872.458 272.773 871.833 274.086 871.833 275.679C871.833 277.179 872.536 278.398 873.943 279.336C875.38 280.242 877.786 281.039 881.161 281.726C884.536 282.383 887.38 283.133 889.693 283.976C896.849 286.601 900.427 291.148 900.427 297.617C900.427 302.242 898.443 305.992 894.474 308.867C890.505 311.711 885.38 313.133 879.099 313.133C874.849 313.133 871.068 312.383 867.755 310.883C864.474 309.351 861.896 307.273 860.021 304.648C858.146 301.992 857.208 299.133 857.208 296.07H870.052C870.177 298.476 871.068 300.32 872.724 301.601C874.38 302.883 876.599 303.523 879.38 303.523C881.974 303.523 883.927 303.039 885.24 302.07C886.583 301.07 887.255 299.773 887.255 298.179ZM923.49 312.195H909.896V261.476H923.49V312.195ZM909.099 248.351C909.099 246.32 909.771 244.648 911.115 243.336C912.49 242.023 914.349 241.367 916.693 241.367C919.005 241.367 920.849 242.023 922.224 243.336C923.599 244.648 924.286 246.32 924.286 248.351C924.286 250.414 923.583 252.101 922.177 253.414C920.802 254.726 918.974 255.383 916.693 255.383C914.411 255.383 912.568 254.726 911.161 253.414C909.786 252.101 909.099 250.414 909.099 248.351ZM932.724 286.461C932.724 278.679 934.568 272.414 938.255 267.664C941.974 262.914 946.974 260.539 953.255 260.539C958.818 260.539 963.146 262.445 966.24 266.258L966.802 261.476H979.083V310.508C979.083 314.945 978.068 318.804 976.036 322.086C974.036 325.367 971.208 327.867 967.552 329.586C963.896 331.304 959.615 332.164 954.708 332.164C950.99 332.164 947.365 331.414 943.833 329.914C940.302 328.445 937.63 326.539 935.818 324.195L941.818 315.945C945.193 319.726 949.286 321.617 954.099 321.617C957.693 321.617 960.49 320.648 962.49 318.711C964.49 316.804 965.49 314.086 965.49 310.554V307.836C962.365 311.367 958.255 313.133 953.161 313.133C947.068 313.133 942.13 310.758 938.349 306.008C934.599 301.226 932.724 294.898 932.724 287.023V286.461ZM946.271 287.445C946.271 292.039 947.193 295.648 949.036 298.273C950.88 300.867 953.411 302.164 956.63 302.164C960.755 302.164 963.708 300.617 965.49 297.523V276.195C963.677 273.101 960.755 271.554 956.724 271.554C953.474 271.554 950.911 272.883 949.036 275.539C947.193 278.195 946.271 282.164 946.271 287.445ZM1002.01 261.476L1002.43 267.336C1006.05 262.804 1010.91 260.539 1017.01 260.539C1022.38 260.539 1026.38 262.117 1029.01 265.273C1031.63 268.429 1032.97 273.148 1033.04 279.429V312.195H1019.49V279.758C1019.49 276.883 1018.86 274.804 1017.61 273.523C1016.36 272.211 1014.29 271.554 1011.38 271.554C1007.57 271.554 1004.71 273.179 1002.8 276.429V312.195H989.255V261.476H1002.01ZM1066.69 313.133C1059.26 313.133 1053.19 310.851 1048.51 306.289C1043.85 301.726 1041.52 295.648 1041.52 288.054V286.742C1041.52 281.648 1042.51 277.101 1044.47 273.101C1046.44 269.07 1049.22 265.976 1052.82 263.82C1056.44 261.633 1060.57 260.539 1065.19 260.539C1072.13 260.539 1077.58 262.726 1081.55 267.101C1085.55 271.476 1087.55 277.679 1087.55 285.711V291.242H1055.26C1055.69 294.554 1057.01 297.211 1059.19 299.211C1061.41 301.211 1064.21 302.211 1067.58 302.211C1072.8 302.211 1076.88 300.32 1079.82 296.539L1086.47 303.992C1084.44 306.867 1081.69 309.117 1078.22 310.742C1074.76 312.336 1070.91 313.133 1066.69 313.133ZM1065.15 271.508C1062.46 271.508 1060.27 272.414 1058.58 274.226C1056.93 276.039 1055.86 278.633 1055.4 282.008H1074.24V280.929C1074.18 277.929 1073.36 275.617 1071.8 273.992C1070.24 272.336 1068.02 271.508 1065.15 271.508ZM1123.79 274.179C1121.94 273.929 1120.32 273.804 1118.91 273.804C1113.79 273.804 1110.43 275.539 1108.83 279.008V312.195H1095.29V261.476H1108.08L1108.46 267.523C1111.18 262.867 1114.94 260.539 1119.76 260.539C1121.26 260.539 1122.66 260.742 1123.97 261.148L1123.79 274.179Z" fill="white"/>
<circle cx="1338.8" cy="466.772" r="175.205" fill="white"/>
</g>
<defs>
<clipPath id="clip0_2_924">
<rect width="1620" height="496" fill="white"/>
</clipPath>
</defs>
</svg>
