<svg width="1620" height="496" viewBox="0 0 1620 496" fill="none" xmlns="http://www.w3.org/2000/svg">
<g clip-path="url(#clip0_2_329)">
<rect width="1620" height="496" fill="#8FE372"/>
<path d="M383.326 286.631C370.884 244.456 311.116 244.456 298.674 286.631L295.662 296.874C293.803 303.188 290.554 309.006 286.154 313.901C281.754 318.796 276.314 322.644 270.233 325.163C264.152 327.682 257.585 328.808 251.012 328.458C244.439 328.109 238.028 326.293 232.249 323.143L222.91 318.022C184.26 296.994 141.994 339.26 163.052 377.88L168.143 387.249C181.579 411.951 168.836 442.709 141.874 450.662L131.631 453.674C89.4563 466.116 89.4563 525.884 131.631 538.326L141.874 541.338C148.188 543.197 154.006 546.446 158.901 550.846C163.796 555.246 167.644 560.686 170.163 566.767C172.682 572.848 173.808 579.415 173.458 585.988C173.109 592.561 171.293 598.972 168.143 604.751L163.022 614.09C141.994 652.74 184.26 695.006 222.88 673.948L232.249 668.857C238.028 665.707 244.439 663.891 251.012 663.542C257.585 663.192 264.152 664.318 270.233 666.837C276.314 669.356 281.754 673.204 286.154 678.099C290.554 682.994 293.803 688.812 295.662 695.126L298.674 705.369C311.116 747.544 370.884 747.544 383.326 705.369L386.338 695.126C388.197 688.812 391.446 682.994 395.846 678.099C400.246 673.204 405.686 669.356 411.767 666.837C417.848 664.318 424.415 663.192 430.988 663.542C437.561 663.891 443.972 665.707 449.751 668.857L459.09 673.978C497.74 695.006 540.006 652.74 518.948 614.12L513.857 604.751C510.707 598.972 508.891 592.561 508.542 585.988C508.192 579.415 509.318 572.848 511.837 566.767C514.356 560.686 518.204 555.246 523.099 550.846C527.994 546.446 533.812 543.197 540.126 541.338L550.369 538.326C592.544 525.884 592.544 466.116 550.369 453.674L540.126 450.662C533.812 448.803 527.994 445.554 523.099 441.154C518.204 436.754 514.356 431.314 511.837 425.233C509.318 419.152 508.192 412.585 508.542 406.012C508.891 399.439 510.707 393.028 513.857 387.249L518.979 377.91C540.006 339.26 497.74 296.994 459.12 318.052L449.751 323.143C443.972 326.293 437.561 328.109 430.988 328.458C424.415 328.808 417.848 327.682 411.767 325.163C405.686 322.644 400.246 318.796 395.846 313.901C391.446 309.006 388.197 303.188 386.338 296.874L383.326 286.631ZM341 584.266C317.59 584.266 295.139 574.967 278.586 558.414C262.033 541.861 252.734 519.41 252.734 496C252.734 472.59 262.033 450.139 278.586 433.586C295.139 417.033 317.59 407.734 341 407.734C364.402 407.734 386.845 417.03 403.392 433.578C419.94 450.125 429.236 472.568 429.236 495.97C429.236 519.372 419.94 541.815 403.392 558.362C386.845 574.91 364.402 584.206 341 584.206V584.266Z" fill="#444242" stroke="white" stroke-width="10"/>
<path d="M492.469 290H478.406V221.75H492.469V290ZM508.547 242.703L502.172 239C504.859 234.781 506.25 230.422 506.344 225.922V218H517.125V225.266C517.125 228.078 516.344 231.125 514.781 234.406C513.219 237.688 511.141 240.453 508.547 242.703ZM538.453 239.281L538.875 244.953C542.469 240.547 547.328 238.344 553.453 238.344C559.984 238.344 564.469 240.922 566.906 246.078C570.469 240.922 575.547 238.344 582.141 238.344C587.641 238.344 591.734 239.953 594.422 243.172C597.109 246.359 598.453 251.172 598.453 257.609V290H584.859V257.656C584.859 254.781 584.297 252.688 583.172 251.375C582.047 250.031 580.062 249.359 577.219 249.359C573.156 249.359 570.344 251.297 568.781 255.172L568.828 290H555.281V257.703C555.281 254.766 554.703 252.641 553.547 251.328C552.391 250.016 550.422 249.359 547.641 249.359C543.797 249.359 541.016 250.953 539.297 254.141V290H525.75V239.281H538.453ZM672.234 275.938H647.578L642.891 290H627.938L653.344 221.75H666.375L691.922 290H676.969L672.234 275.938ZM651.375 264.547H668.438L659.859 239L651.375 264.547ZM707.625 239.281L708.047 245.141C711.672 240.609 716.531 238.344 722.625 238.344C728 238.344 732 239.922 734.625 243.078C737.25 246.234 738.594 250.953 738.656 257.234V290H725.109V257.562C725.109 254.688 724.484 252.609 723.234 251.328C721.984 250.016 719.906 249.359 717 249.359C713.188 249.359 710.328 250.984 708.422 254.234V290H694.875V239.281H707.625ZM814.828 260.422H787.828V278.703H819.516V290H773.766V221.75H819.422V233.141H787.828V249.406H814.828V260.422ZM839.344 239.281L839.766 245.141C843.391 240.609 848.25 238.344 854.344 238.344C859.719 238.344 863.719 239.922 866.344 243.078C868.969 246.234 870.312 250.953 870.375 257.234V290H856.828V257.562C856.828 254.688 856.203 252.609 854.953 251.328C853.703 250.016 851.625 249.359 848.719 249.359C844.906 249.359 842.047 250.984 840.141 254.234V290H826.594V239.281H839.344Z" fill="white"/>
<path d="M878.719 264.266C878.719 256.484 880.562 250.219 884.25 245.469C887.969 240.719 892.969 238.344 899.25 238.344C904.812 238.344 909.141 240.25 912.234 244.062L912.797 239.281H925.078V288.312C925.078 292.75 924.062 296.609 922.031 299.891C920.031 303.172 917.203 305.672 913.547 307.391C909.891 309.109 905.609 309.969 900.703 309.969C896.984 309.969 893.359 309.219 889.828 307.719C886.297 306.25 883.625 304.344 881.812 302L887.812 293.75C891.188 297.531 895.281 299.422 900.094 299.422C903.688 299.422 906.484 298.453 908.484 296.516C910.484 294.609 911.484 291.891 911.484 288.359V285.641C908.359 289.172 904.25 290.938 899.156 290.938C893.062 290.938 888.125 288.562 884.344 283.812C880.594 279.031 878.719 272.703 878.719 264.828V264.266ZM892.266 265.25C892.266 269.844 893.188 273.453 895.031 276.078C896.875 278.672 899.406 279.969 902.625 279.969C906.75 279.969 909.703 278.422 911.484 275.328V254C909.672 250.906 906.75 249.359 902.719 249.359C899.469 249.359 896.906 250.688 895.031 253.344C893.188 256 892.266 259.969 892.266 265.25ZM949.828 290H936.234V239.281H949.828V290ZM935.438 226.156C935.438 224.125 936.109 222.453 937.453 221.141C938.828 219.828 940.688 219.172 943.031 219.172C945.344 219.172 947.188 219.828 948.562 221.141C949.938 222.453 950.625 224.125 950.625 226.156C950.625 228.219 949.922 229.906 948.516 231.219C947.141 232.531 945.312 233.188 943.031 233.188C940.75 233.188 938.906 232.531 937.5 231.219C936.125 229.906 935.438 228.219 935.438 226.156ZM973.5 239.281L973.922 245.141C977.547 240.609 982.406 238.344 988.5 238.344C993.875 238.344 997.875 239.922 1000.5 243.078C1003.12 246.234 1004.47 250.953 1004.53 257.234V290H990.984V257.562C990.984 254.688 990.359 252.609 989.109 251.328C987.859 250.016 985.781 249.359 982.875 249.359C979.062 249.359 976.203 250.984 974.297 254.234V290H960.75V239.281H973.5ZM1038.19 290.938C1030.75 290.938 1024.69 288.656 1020 284.094C1015.34 279.531 1013.02 273.453 1013.02 265.859V264.547C1013.02 259.453 1014 254.906 1015.97 250.906C1017.94 246.875 1020.72 243.781 1024.31 241.625C1027.94 239.438 1032.06 238.344 1036.69 238.344C1043.62 238.344 1049.08 240.531 1053.05 244.906C1057.05 249.281 1059.05 255.484 1059.05 263.516V269.047H1026.75C1027.19 272.359 1028.5 275.016 1030.69 277.016C1032.91 279.016 1035.7 280.016 1039.08 280.016C1044.3 280.016 1048.38 278.125 1051.31 274.344L1057.97 281.797C1055.94 284.672 1053.19 286.922 1049.72 288.547C1046.25 290.141 1042.41 290.938 1038.19 290.938ZM1036.64 249.312C1033.95 249.312 1031.77 250.219 1030.08 252.031C1028.42 253.844 1027.36 256.438 1026.89 259.812H1045.73V258.734C1045.67 255.734 1044.86 253.422 1043.3 251.797C1041.73 250.141 1039.52 249.312 1036.64 249.312ZM1090.12 290.938C1082.69 290.938 1076.62 288.656 1071.94 284.094C1067.28 279.531 1064.95 273.453 1064.95 265.859V264.547C1064.95 259.453 1065.94 254.906 1067.91 250.906C1069.88 246.875 1072.66 243.781 1076.25 241.625C1079.88 239.438 1084 238.344 1088.62 238.344C1095.56 238.344 1101.02 240.531 1104.98 244.906C1108.98 249.281 1110.98 255.484 1110.98 263.516V269.047H1078.69C1079.12 272.359 1080.44 275.016 1082.62 277.016C1084.84 279.016 1087.64 280.016 1091.02 280.016C1096.23 280.016 1100.31 278.125 1103.25 274.344L1109.91 281.797C1107.88 284.672 1105.12 286.922 1101.66 288.547C1098.19 290.141 1094.34 290.938 1090.12 290.938ZM1088.58 249.312C1085.89 249.312 1083.7 250.219 1082.02 252.031C1080.36 253.844 1079.3 256.438 1078.83 259.812H1097.67V258.734C1097.61 255.734 1096.8 253.422 1095.23 251.797C1093.67 250.141 1091.45 249.312 1088.58 249.312ZM1147.22 251.984C1145.38 251.734 1143.75 251.609 1142.34 251.609C1137.22 251.609 1133.86 253.344 1132.27 256.812V290H1118.72V239.281H1131.52L1131.89 245.328C1134.61 240.672 1138.38 238.344 1143.19 238.344C1144.69 238.344 1146.09 238.547 1147.41 238.953L1147.22 251.984Z" fill="#444242"/>
<rect x="572.563" y="199.145" width="58.8529" height="16.7" rx="8.35" transform="rotate(-90 572.563 199.145)" fill="white"/>
<rect x="523.283" y="199.999" width="82.7352" height="16.7" rx="8.35" transform="rotate(-90 523.283 199.999)" fill="white"/>
<rect x="474" y="199.145" width="115.147" height="16.7" rx="8.35" transform="rotate(-90 474 199.145)" fill="white"/>
<rect x="714.563" y="193.903" width="56.1725" height="16.2819" rx="8.14095" transform="rotate(-90 714.563 193.903)" fill="white"/>
<rect x="673.282" y="194.716" width="78.9672" height="16.2819" rx="8.14095" transform="rotate(-90 673.282 194.716)" fill="white"/>
<rect x="632" y="193.903" width="109.903" height="16.2819" rx="8.14095" transform="rotate(-90 632 193.903)" fill="white"/>
<rect x="1111.49" y="200.094" width="56.1725" height="16.7604" rx="8.38021" transform="rotate(-90 1111.49 200.094)" fill="#444242"/>
<rect x="1063.85" y="200.909" width="78.1531" height="16.7604" rx="8.38021" transform="rotate(-90 1063.85 200.909)" fill="#444242"/>
<rect x="1016.21" y="200.094" width="91.9927" height="16.7604" rx="8.38021" transform="rotate(-90 1016.21 200.094)" fill="#444242"/>
<rect x="968.568" y="200.094" width="109.089" height="16.7604" rx="8.38021" transform="rotate(-90 968.568 200.094)" fill="#444242"/>
<rect x="920.926" y="198.467" width="127.813" height="16.7604" rx="8.38021" transform="rotate(-90 920.926 198.467)" fill="#444242"/>
<rect x="873.284" y="196.838" width="140.838" height="16.7604" rx="8.38021" transform="rotate(-90 873.284 196.838)" fill="#444242"/>
<rect x="825.642" y="196.838" width="126.185" height="16.7604" rx="8.38021" transform="rotate(-90 825.642 196.838)" fill="white"/>
<rect x="778" y="195.211" width="87.1081" height="16.7604" rx="8.38021" transform="rotate(-90 778 195.211)" fill="white"/>
<g filter="url(#filter0_d_2_329)">
<rect x="1252.09" y="340.229" width="79.6775" height="20" rx="10" transform="rotate(-135 1252.09 340.229)" fill="white"/>
<rect x="1322" y="415" width="374" height="17" rx="8.50002" transform="rotate(-90 1322 415)" fill="white"/>
<rect x="1339" y="415" width="275" height="17" rx="8.5" transform="rotate(180 1339 415)" fill="white"/>
<path d="M1329 262C1249.47 262 1185 326.471 1185 406" stroke="white" stroke-width="16"/>
</g>
</g>
<defs>
<filter id="filter0_d_2_329" x="1064" y="41" width="285" height="384" filterUnits="userSpaceOnUse" color-interpolation-filters="sRGB">
<feFlood flood-opacity="0" result="BackgroundImageFix"/>
<feColorMatrix in="SourceAlpha" type="matrix" values="0 0 0 0 0 0 0 0 0 0 0 0 0 0 0 0 0 0 127 0" result="hardAlpha"/>
<feOffset dx="10" dy="10"/>
<feComposite in2="hardAlpha" operator="out"/>
<feColorMatrix type="matrix" values="0 0 0 0 0.266667 0 0 0 0 0.258824 0 0 0 0 0.258824 0 0 0 1 0"/>
<feBlend mode="normal" in2="BackgroundImageFix" result="effect1_dropShadow_2_329"/>
<feBlend mode="normal" in="SourceGraphic" in2="effect1_dropShadow_2_329" result="shape"/>
</filter>
<clipPath id="clip0_2_329">
<rect width="1620" height="496" fill="white"/>
</clipPath>
</defs>
</svg>
