<svg width="1140" height="496" viewBox="0 0 1140 496" fill="none" xmlns="http://www.w3.org/2000/svg">
<g clip-path="url(#clip0_2_384)">
<rect width="1140" height="496" fill="#8FE372"/>
<path d="M259.326 264.631C246.884 222.456 187.116 222.456 174.674 264.631L171.662 274.874C169.803 281.188 166.554 287.006 162.154 291.901C157.754 296.796 152.314 300.644 146.233 303.163C140.152 305.682 133.585 306.808 127.012 306.458C120.439 306.109 114.028 304.293 108.249 301.143L98.91 296.022C60.2596 274.994 17.9942 317.26 39.0516 355.88L44.1428 365.249C57.5785 389.951 44.8356 420.709 17.8738 428.662L7.63125 431.674C-34.5437 444.116 -34.5437 503.884 7.63125 516.326L17.8738 519.338C24.1878 521.197 30.0057 524.446 34.9008 528.846C39.7959 533.246 43.644 538.686 46.1631 544.767C48.6821 550.848 49.8081 557.415 49.4585 563.988C49.1089 570.561 47.2926 576.972 44.1428 582.751L39.0215 592.09C17.9943 630.74 60.2596 673.006 98.8799 651.948L108.249 646.857C114.028 643.707 120.439 641.891 127.012 641.542C133.585 641.192 140.152 642.318 146.233 644.837C152.314 647.356 157.754 651.204 162.154 656.099C166.554 660.994 169.803 666.812 171.662 673.126L174.674 683.369C187.116 725.544 246.884 725.544 259.326 683.369L262.338 673.126C264.197 666.812 267.446 660.994 271.846 656.099C276.246 651.204 281.686 647.356 287.767 644.837C293.848 642.318 300.415 641.192 306.988 641.542C313.561 641.891 319.972 643.707 325.751 646.857L335.09 651.978C373.74 673.006 416.006 630.74 394.948 592.12L389.857 582.751C386.707 576.972 384.891 570.561 384.542 563.988C384.192 557.415 385.318 550.848 387.837 544.767C390.356 538.686 394.204 533.246 399.099 528.846C403.994 524.446 409.812 521.197 416.126 519.338L426.369 516.326C468.544 503.884 468.544 444.116 426.369 431.674L416.126 428.662C409.812 426.803 403.994 423.554 399.099 419.154C394.204 414.754 390.356 409.314 387.837 403.233C385.318 397.152 384.192 390.585 384.542 384.012C384.891 377.439 386.707 371.028 389.857 365.249L394.979 355.91C416.006 317.26 373.74 274.994 335.12 296.052L325.751 301.143C319.972 304.293 313.561 306.109 306.988 306.458C300.415 306.808 293.848 305.682 287.767 303.163C281.686 300.644 276.246 296.796 271.846 291.901C267.446 287.006 264.197 281.188 262.338 274.874L259.326 264.631ZM217 562.266C193.59 562.266 171.139 552.967 154.586 536.414C138.033 519.861 128.734 497.41 128.734 474C128.734 450.59 138.033 428.139 154.586 411.586C171.139 395.033 193.59 385.734 217 385.734C240.402 385.734 262.845 395.03 279.392 411.578C295.94 428.125 305.236 450.568 305.236 473.97C305.236 497.372 295.94 519.815 279.392 536.362C262.845 552.91 240.402 562.206 217 562.206V562.266Z" fill="#444242" stroke="white" stroke-width="10"/>
<path d="M358.312 254H348.938V208.5H358.312V254ZM369.031 222.469L364.781 220C366.573 217.188 367.5 214.281 367.562 211.281V206H374.75V210.844C374.75 212.719 374.229 214.75 373.188 216.938C372.146 219.125 370.76 220.969 369.031 222.469ZM388.969 220.188L389.25 223.969C391.646 221.031 394.885 219.562 398.969 219.562C403.323 219.562 406.312 221.281 407.938 224.719C410.312 221.281 413.698 219.562 418.094 219.562C421.76 219.562 424.49 220.635 426.281 222.781C428.073 224.906 428.969 228.115 428.969 232.406V254H419.906V232.438C419.906 230.521 419.531 229.125 418.781 228.25C418.031 227.354 416.708 226.906 414.812 226.906C412.104 226.906 410.229 228.198 409.188 230.781L409.219 254H400.188V232.469C400.188 230.51 399.802 229.094 399.031 228.219C398.26 227.344 396.948 226.906 395.094 226.906C392.531 226.906 390.677 227.969 389.531 230.094V254H380.5V220.188H388.969ZM478.156 244.625H461.719L458.594 254H448.625L465.562 208.5H474.25L491.281 254H481.312L478.156 244.625ZM464.25 237.031H475.625L469.906 220L464.25 237.031ZM501.75 220.188L502.031 224.094C504.448 221.073 507.688 219.562 511.75 219.562C515.333 219.562 518 220.615 519.75 222.719C521.5 224.823 522.396 227.969 522.438 232.156V254H513.406V232.375C513.406 230.458 512.99 229.073 512.156 228.219C511.323 227.344 509.938 226.906 508 226.906C505.458 226.906 503.552 227.99 502.281 230.156V254H493.25V220.188H501.75ZM573.219 234.281H555.219V246.469H576.344V254H545.844V208.5H576.281V216.094H555.219V226.938H573.219V234.281ZM589.562 220.188L589.844 224.094C592.26 221.073 595.5 219.562 599.562 219.562C603.146 219.562 605.812 220.615 607.562 222.719C609.312 224.823 610.208 227.969 610.25 232.156V254H601.219V232.375C601.219 230.458 600.802 229.073 599.969 228.219C599.135 227.344 597.75 226.906 595.812 226.906C593.271 226.906 591.365 227.99 590.094 230.156V254H581.062V220.188H589.562Z" fill="white"/>
<path d="M615.812 236.844C615.812 231.656 617.042 227.479 619.5 224.312C621.979 221.146 625.312 219.562 629.5 219.562C633.208 219.562 636.094 220.833 638.156 223.375L638.531 220.188H646.719V252.875C646.719 255.833 646.042 258.406 644.688 260.594C643.354 262.781 641.469 264.448 639.031 265.594C636.594 266.74 633.74 267.312 630.469 267.312C627.99 267.312 625.573 266.812 623.219 265.812C620.865 264.833 619.083 263.562 617.875 262L621.875 256.5C624.125 259.021 626.854 260.281 630.062 260.281C632.458 260.281 634.323 259.635 635.656 258.344C636.99 257.073 637.656 255.26 637.656 252.906V251.094C635.573 253.448 632.833 254.625 629.438 254.625C625.375 254.625 622.083 253.042 619.562 249.875C617.062 246.688 615.812 242.469 615.812 237.219V236.844ZM624.844 237.5C624.844 240.562 625.458 242.969 626.688 244.719C627.917 246.448 629.604 247.312 631.75 247.312C634.5 247.312 636.469 246.281 637.656 244.219V230C636.448 227.938 634.5 226.906 631.812 226.906C629.646 226.906 627.938 227.792 626.688 229.562C625.458 231.333 624.844 233.979 624.844 237.5ZM663.219 254H654.156V220.188H663.219V254ZM653.625 211.438C653.625 210.083 654.073 208.969 654.969 208.094C655.885 207.219 657.125 206.781 658.688 206.781C660.229 206.781 661.458 207.219 662.375 208.094C663.292 208.969 663.75 210.083 663.75 211.438C663.75 212.812 663.281 213.938 662.344 214.812C661.427 215.688 660.208 216.125 658.688 216.125C657.167 216.125 655.938 215.688 655 214.812C654.083 213.938 653.625 212.812 653.625 211.438ZM679 220.188L679.281 224.094C681.698 221.073 684.938 219.562 689 219.562C692.583 219.562 695.25 220.615 697 222.719C698.75 224.823 699.646 227.969 699.688 232.156V254H690.656V232.375C690.656 230.458 690.24 229.073 689.406 228.219C688.573 227.344 687.188 226.906 685.25 226.906C682.708 226.906 680.802 227.99 679.531 230.156V254H670.5V220.188H679ZM722.125 254.625C717.167 254.625 713.125 253.104 710 250.062C706.896 247.021 705.344 242.969 705.344 237.906V237.031C705.344 233.635 706 230.604 707.312 227.938C708.625 225.25 710.479 223.188 712.875 221.75C715.292 220.292 718.042 219.562 721.125 219.562C725.75 219.562 729.385 221.021 732.031 223.938C734.698 226.854 736.031 230.99 736.031 236.344V240.031H714.5C714.792 242.24 715.667 244.01 717.125 245.344C718.604 246.677 720.469 247.344 722.719 247.344C726.198 247.344 728.917 246.083 730.875 243.562L735.312 248.531C733.958 250.448 732.125 251.948 729.812 253.031C727.5 254.094 724.938 254.625 722.125 254.625ZM721.094 226.875C719.302 226.875 717.844 227.479 716.719 228.688C715.615 229.896 714.906 231.625 714.594 233.875H727.156V233.156C727.115 231.156 726.573 229.615 725.531 228.531C724.49 227.427 723.01 226.875 721.094 226.875ZM756.75 254.625C751.792 254.625 747.75 253.104 744.625 250.062C741.521 247.021 739.969 242.969 739.969 237.906V237.031C739.969 233.635 740.625 230.604 741.938 227.938C743.25 225.25 745.104 223.188 747.5 221.75C749.917 220.292 752.667 219.562 755.75 219.562C760.375 219.562 764.01 221.021 766.656 223.938C769.323 226.854 770.656 230.99 770.656 236.344V240.031H749.125C749.417 242.24 750.292 244.01 751.75 245.344C753.229 246.677 755.094 247.344 757.344 247.344C760.823 247.344 763.542 246.083 765.5 243.562L769.938 248.531C768.583 250.448 766.75 251.948 764.438 253.031C762.125 254.094 759.562 254.625 756.75 254.625ZM755.719 226.875C753.927 226.875 752.469 227.479 751.344 228.688C750.24 229.896 749.531 231.625 749.219 233.875H761.781V233.156C761.74 231.156 761.198 229.615 760.156 228.531C759.115 227.427 757.635 226.875 755.719 226.875ZM794.812 228.656C793.583 228.49 792.5 228.406 791.562 228.406C788.146 228.406 785.906 229.562 784.844 231.875V254H775.812V220.188H784.344L784.594 224.219C786.406 221.115 788.917 219.562 792.125 219.562C793.125 219.562 794.062 219.698 794.938 219.969L794.812 228.656Z" fill="#444242"/>
<rect x="407.736" y="183.743" width="42.8019" height="12.4844" rx="6.2422" transform="rotate(-90 407.736 183.743)" fill="white"/>
<rect x="377.368" y="184.365" width="60.1707" height="12.4844" rx="6.2422" transform="rotate(-90 377.368 184.365)" fill="white"/>
<rect x="347" y="183.743" width="83.7428" height="12.4844" rx="6.2422" transform="rotate(-90 347 183.743)" fill="white"/>
<rect x="513.992" y="182.881" width="40.8525" height="12.4826" rx="6.24129" transform="rotate(-90 513.992 182.881)" fill="white"/>
<rect x="483.077" y="183.472" width="57.4304" height="12.4826" rx="6.24129" transform="rotate(-90 483.077 183.472)" fill="white"/>
<rect x="452.162" y="182.879" width="79.9289" height="12.4826" rx="6.24129" transform="rotate(-90 452.162 182.879)" fill="white"/>
<rect x="772" y="188" width="35" height="13" rx="6.5" transform="rotate(-90 772 188)" fill="#444242"/>
<rect x="741" y="188" width="50" height="13" rx="6.5" transform="rotate(-90 741 188)" fill="#444242"/>
<rect x="710.505" y="187.797" width="66.9034" height="12.6932" rx="6.34659" transform="rotate(-90 710.505 187.797)" fill="#444242"/>
<rect x="679.604" y="187.797" width="79.3368" height="12.6932" rx="6.34659" transform="rotate(-90 679.604 187.797)" fill="#444242"/>
<rect x="648.703" y="186.613" width="92.9543" height="12.6932" rx="6.34659" transform="rotate(-90 648.703 186.613)" fill="#444242"/>
<rect x="617.802" y="185.428" width="102.427" height="12.6932" rx="6.34659" transform="rotate(-90 617.802 185.428)" fill="#444242"/>
<rect x="586.901" y="185.428" width="91.7702" height="12.6932" rx="6.34659" transform="rotate(-90 586.901 185.428)" fill="white"/>
<rect x="556" y="184.246" width="63.351" height="12.6932" rx="6.34659" transform="rotate(-90 556 184.246)" fill="white"/>
<g filter="url(#filter0_d_2_384)">
<rect x="799.516" y="358.658" width="53.0548" height="20" rx="10" transform="rotate(-135 799.516 358.658)" fill="white"/>
<rect x="856" y="420" width="374" height="17" rx="8.50002" transform="rotate(-90 856 420)" fill="white"/>
<rect x="873" y="420" width="238" height="17" rx="8.50002" transform="rotate(180 873 420)" fill="white"/>
<path d="M863 299C801.144 299 751 349.144 751 411" stroke="white" stroke-width="16"/>
</g>
</g>
<defs>
<filter id="filter0_d_2_384" x="635" y="46" width="248" height="384" filterUnits="userSpaceOnUse" color-interpolation-filters="sRGB">
<feFlood flood-opacity="0" result="BackgroundImageFix"/>
<feColorMatrix in="SourceAlpha" type="matrix" values="0 0 0 0 0 0 0 0 0 0 0 0 0 0 0 0 0 0 127 0" result="hardAlpha"/>
<feOffset dx="10" dy="10"/>
<feComposite in2="hardAlpha" operator="out"/>
<feColorMatrix type="matrix" values="0 0 0 0 0.266667 0 0 0 0 0.258824 0 0 0 0 0.258824 0 0 0 1 0"/>
<feBlend mode="normal" in2="BackgroundImageFix" result="effect1_dropShadow_2_384"/>
<feBlend mode="normal" in="SourceGraphic" in2="effect1_dropShadow_2_384" result="shape"/>
</filter>
<clipPath id="clip0_2_384">
<rect width="1140" height="496" fill="white"/>
</clipPath>
</defs>
</svg>
