<svg width="1620" height="496" viewBox="0 0 1620 496" fill="none" xmlns="http://www.w3.org/2000/svg">
<g clip-path="url(#clip0_2_65)">
<rect width="1620" height="496" fill="#6ACBF4"/>
<path d="M537.848 47.9509C534.787 29.6592 548.891 13 567.437 13H1052.31C1070.94 13 1085.07 29.8057 1081.86 48.1599L1057.02 190.462H561.693L537.848 47.9509Z" fill="white"/>
<rect x="567.288" y="38.7097" width="487.146" height="201.29" fill="#444242"/>
<rect x="621" y="71" width="241" height="31" rx="14" fill="white"/>
<rect x="621" y="118" width="378" height="31" rx="14" fill="white"/>
<rect x="621" y="164" width="241" height="32" rx="14" fill="white"/>
<path d="M529.047 321H514.984V252.75H529.047V321ZM545.125 273.704L538.75 270C541.438 265.782 542.828 261.422 542.922 256.922V249H553.703V256.266C553.703 259.079 552.922 262.125 551.359 265.407C549.797 268.688 547.719 271.454 545.125 273.704ZM575.031 270.282L575.453 275.954C579.047 271.547 583.906 269.344 590.031 269.344C596.562 269.344 601.047 271.922 603.484 277.079C607.047 271.922 612.125 269.344 618.719 269.344C624.219 269.344 628.312 270.954 631 274.172C633.688 277.36 635.031 282.172 635.031 288.61V321H621.438V288.657C621.438 285.782 620.875 283.688 619.75 282.375C618.625 281.032 616.641 280.36 613.797 280.36C609.734 280.36 606.922 282.297 605.359 286.172L605.406 321H591.859V288.704C591.859 285.766 591.281 283.641 590.125 282.329C588.969 281.016 587 280.36 584.219 280.36C580.375 280.36 577.594 281.954 575.875 285.141V321H562.328V270.282H575.031ZM708.812 306.938H684.156L679.469 321H664.516L689.922 252.75H702.953L728.5 321H713.547L708.812 306.938ZM687.953 295.547H705.016L696.438 270L687.953 295.547ZM794.172 303.094C794.172 300.438 793.234 298.407 791.359 297C789.484 295.563 786.109 294.063 781.234 292.5C776.359 290.907 772.5 289.344 769.656 287.813C761.906 283.625 758.031 277.985 758.031 270.891C758.031 267.204 759.062 263.922 761.125 261.047C763.219 258.141 766.203 255.875 770.078 254.25C773.984 252.625 778.359 251.813 783.203 251.813C788.078 251.813 792.422 252.704 796.234 254.485C800.047 256.235 803 258.719 805.094 261.938C807.219 265.157 808.281 268.813 808.281 272.907H794.219C794.219 269.782 793.234 267.36 791.266 265.641C789.297 263.891 786.531 263.016 782.969 263.016C779.531 263.016 776.859 263.75 774.953 265.219C773.047 266.657 772.094 268.563 772.094 270.938C772.094 273.157 773.203 275.016 775.422 276.516C777.672 278.016 780.969 279.422 785.312 280.735C793.312 283.141 799.141 286.125 802.797 289.688C806.453 293.25 808.281 297.688 808.281 303C808.281 308.907 806.047 313.547 801.578 316.922C797.109 320.266 791.094 321.938 783.531 321.938C778.281 321.938 773.5 320.985 769.188 319.079C764.875 317.141 761.578 314.5 759.297 311.157C757.047 307.813 755.922 303.938 755.922 299.532H770.031C770.031 307.063 774.531 310.829 783.531 310.829C786.875 310.829 789.484 310.157 791.359 308.813C793.234 307.438 794.172 305.532 794.172 303.094ZM833.172 257.813V270.282H841.844V280.219H833.172V305.532C833.172 307.407 833.531 308.75 834.25 309.563C834.969 310.375 836.344 310.782 838.375 310.782C839.875 310.782 841.203 310.672 842.359 310.454V320.719C839.703 321.532 836.969 321.938 834.156 321.938C824.656 321.938 819.812 317.141 819.625 307.547V280.219H812.219V270.282H819.625V257.813H833.172ZM879.766 315.844C876.422 319.907 871.797 321.938 865.891 321.938C860.453 321.938 856.297 320.375 853.422 317.25C850.578 314.125 849.125 309.547 849.062 303.516V270.282H862.609V303.047C862.609 308.329 865.016 310.969 869.828 310.969C874.422 310.969 877.578 309.375 879.297 306.188V270.282H892.891V321H880.141L879.766 315.844ZM901 295.266C901 287.36 902.766 281.063 906.297 276.375C909.859 271.688 914.719 269.344 920.875 269.344C925.812 269.344 929.891 271.188 933.109 274.875V249H946.703V321H934.469L933.812 315.61C930.438 319.829 926.094 321.938 920.781 321.938C914.812 321.938 910.016 319.594 906.391 314.907C902.797 310.188 901 303.641 901 295.266ZM914.547 296.25C914.547 301 915.375 304.641 917.031 307.172C918.688 309.704 921.094 310.969 924.25 310.969C928.438 310.969 931.391 309.204 933.109 305.672V285.657C931.422 282.125 928.5 280.36 924.344 280.36C917.812 280.36 914.547 285.657 914.547 296.25ZM980.547 321.938C973.109 321.938 967.047 319.657 962.359 315.094C957.703 310.532 955.375 304.454 955.375 296.86V295.547C955.375 290.454 956.359 285.907 958.328 281.907C960.297 277.875 963.078 274.782 966.672 272.625C970.297 270.438 974.422 269.344 979.047 269.344C985.984 269.344 991.438 271.532 995.406 275.907C999.406 280.282 1001.41 286.485 1001.41 294.516V300.047H969.109C969.547 303.36 970.859 306.016 973.047 308.016C975.266 310.016 978.062 311.016 981.438 311.016C986.656 311.016 990.734 309.125 993.672 305.344L1000.33 312.797C998.297 315.672 995.547 317.922 992.078 319.547C988.609 321.141 984.766 321.938 980.547 321.938ZM979 280.313C976.312 280.313 974.125 281.219 972.438 283.032C970.781 284.844 969.719 287.438 969.25 290.813H988.094V289.735C988.031 286.735 987.219 284.422 985.656 282.797C984.094 281.141 981.875 280.313 979 280.313ZM1021.61 270.282L1022.03 276.141C1025.66 271.61 1030.52 269.344 1036.61 269.344C1041.98 269.344 1045.98 270.922 1048.61 274.079C1051.23 277.235 1052.58 281.954 1052.64 288.235V321H1039.09V288.563C1039.09 285.688 1038.47 283.61 1037.22 282.329C1035.97 281.016 1033.89 280.36 1030.98 280.36C1027.17 280.36 1024.31 281.985 1022.41 285.235V321H1008.86V270.282H1021.61ZM1079.17 257.813V270.282H1087.84V280.219H1079.17V305.532C1079.17 307.407 1079.53 308.75 1080.25 309.563C1080.97 310.375 1082.34 310.782 1084.38 310.782C1085.88 310.782 1087.2 310.672 1088.36 310.454V320.719C1085.7 321.532 1082.97 321.938 1080.16 321.938C1070.66 321.938 1065.81 317.141 1065.62 307.547V280.219H1058.22V270.282H1065.62V257.813H1079.17Z" fill="white"/>
<rect x="746.924" y="246.974" width="348.958" height="84.8208" fill="#8A88FD" fill-opacity="0.24"/>
<ellipse cx="746.521" cy="354.374" rx="16.5211" ry="15.6304" fill="#6B8CFB"/>
<rect x="744.539" y="246.21" width="5.28676" height="100.034" fill="#6B8CFB"/>
<ellipse rx="16.5211" ry="15.6303" transform="matrix(1 0 0 -1 1095.48 223.63)" fill="#6B8CFB"/>
<rect width="5.28676" height="100.034" transform="matrix(1 0 0 -1 1093.5 331.794)" fill="#6B8CFB"/>
<path d="M196 390.311C196 379.265 204.954 370.311 216 370.311H567V511.999H196V390.311Z" fill="white"/>
<path d="M196 294.533C196 283.488 204.954 274.533 216 274.533H451.898V355.272H196V294.533Z" fill="white"/>
<path d="M196 232C196 220.954 204.954 212 216 212H309.047V256.327H196V232Z" fill="white"/>
<path d="M1035 368.801H1386C1397.05 368.801 1406 377.755 1406 388.801V512.001H1035V368.801Z" fill="white"/>
<path d="M1150.1 272H1386C1397.05 272 1406 280.954 1406 292V353.6H1150.1V272Z" fill="white"/>
<path d="M1292.95 212H1386C1397.05 212 1406 220.954 1406 232V256.8H1292.95V212Z" fill="white"/>
</g>
<defs>
<clipPath id="clip0_2_65">
<rect width="1620" height="496" fill="white"/>
</clipPath>
</defs>
</svg>
