<svg width="1140" height="496" viewBox="0 0 1140 496" fill="none" xmlns="http://www.w3.org/2000/svg">
<g clip-path="url(#clip0_2_120)">
<rect width="1140" height="496" fill="#6ACBF4"/>
<path d="M316.197 47.4726C313.462 29.3275 327.512 13 345.862 13H776.911C795.339 13 809.411 29.4586 806.547 47.6625L784.08 190.462H337.756L316.197 47.4726Z" fill="white"/>
<rect x="342.797" y="38.709" width="438.957" height="201.29" fill="#444242"/>
<rect x="381" y="65" width="241" height="31" rx="14" fill="white"/>
<rect x="381" y="112" width="378" height="31" rx="14" fill="white"/>
<rect x="381" y="158" width="241" height="32" rx="14" fill="white"/>
<path d="M381.031 316.999H371.656V271.499H381.031V316.999ZM391.75 285.468L387.5 282.999C389.292 280.187 390.219 277.28 390.281 274.28V268.999H397.469V273.843C397.469 275.718 396.948 277.749 395.906 279.937C394.865 282.124 393.479 283.968 391.75 285.468ZM411.688 283.187L411.969 286.968C414.365 284.03 417.604 282.562 421.688 282.562C426.042 282.562 429.031 284.28 430.656 287.718C433.031 284.28 436.417 282.562 440.812 282.562C444.479 282.562 447.208 283.634 449 285.78C450.792 287.905 451.688 291.114 451.688 295.405V316.999H442.625V295.437C442.625 293.52 442.25 292.124 441.5 291.249C440.75 290.353 439.427 289.905 437.531 289.905C434.823 289.905 432.948 291.197 431.906 293.78L431.938 316.999H422.906V295.468C422.906 293.509 422.521 292.093 421.75 291.218C420.979 290.343 419.667 289.905 417.812 289.905C415.25 289.905 413.396 290.968 412.25 293.093V316.999H403.219V283.187H411.688ZM500.875 307.624H484.438L481.312 316.999H471.344L488.281 271.499H496.969L514 316.999H504.031L500.875 307.624ZM486.969 300.03H498.344L492.625 282.999L486.969 300.03ZM557.781 305.062C557.781 303.291 557.156 301.937 555.906 300.999C554.656 300.041 552.406 299.041 549.156 297.999C545.906 296.937 543.333 295.895 541.438 294.874C536.271 292.082 533.688 288.322 533.688 283.593C533.688 281.134 534.375 278.947 535.75 277.03C537.146 275.093 539.135 273.582 541.719 272.499C544.323 271.416 547.24 270.874 550.469 270.874C553.719 270.874 556.615 271.468 559.156 272.655C561.698 273.822 563.667 275.478 565.062 277.624C566.479 279.77 567.188 282.207 567.188 284.937H557.812C557.812 282.853 557.156 281.239 555.844 280.093C554.531 278.926 552.688 278.343 550.312 278.343C548.021 278.343 546.24 278.832 544.969 279.812C543.698 280.77 543.062 282.041 543.062 283.624C543.062 285.103 543.802 286.343 545.281 287.343C546.781 288.343 548.979 289.28 551.875 290.155C557.208 291.759 561.094 293.749 563.531 296.124C565.969 298.499 567.188 301.457 567.188 304.999C567.188 308.937 565.698 312.03 562.719 314.28C559.74 316.509 555.729 317.624 550.688 317.624C547.188 317.624 544 316.989 541.125 315.718C538.25 314.426 536.052 312.666 534.531 310.437C533.031 308.207 532.281 305.624 532.281 302.687H541.688C541.688 307.707 544.688 310.218 550.688 310.218C552.917 310.218 554.656 309.77 555.906 308.874C557.156 307.957 557.781 306.687 557.781 305.062ZM583.781 274.874V283.187H589.562V289.812H583.781V306.687C583.781 307.937 584.021 308.832 584.5 309.374C584.979 309.916 585.896 310.187 587.25 310.187C588.25 310.187 589.135 310.114 589.906 309.968V316.812C588.135 317.353 586.312 317.624 584.438 317.624C578.104 317.624 574.875 314.426 574.75 308.03V289.812H569.812V283.187H574.75V274.874H583.781ZM614.844 313.562C612.615 316.27 609.531 317.624 605.594 317.624C601.969 317.624 599.198 316.582 597.281 314.499C595.385 312.416 594.417 309.364 594.375 305.343V283.187H603.406V305.03C603.406 308.551 605.01 310.312 608.219 310.312C611.281 310.312 613.385 309.249 614.531 307.124V283.187H623.594V316.999H615.094L614.844 313.562ZM629 299.843C629 294.572 630.177 290.374 632.531 287.249C634.906 284.124 638.146 282.562 642.25 282.562C645.542 282.562 648.26 283.791 650.406 286.249V268.999H659.469V316.999H651.312L650.875 313.405C648.625 316.218 645.729 317.624 642.188 317.624C638.208 317.624 635.01 316.062 632.594 312.937C630.198 309.791 629 305.426 629 299.843ZM638.031 300.499C638.031 303.666 638.583 306.093 639.688 307.78C640.792 309.468 642.396 310.312 644.5 310.312C647.292 310.312 649.26 309.134 650.406 306.78V293.437C649.281 291.082 647.333 289.905 644.562 289.905C640.208 289.905 638.031 293.437 638.031 300.499ZM682.031 317.624C677.073 317.624 673.031 316.103 669.906 313.062C666.802 310.02 665.25 305.968 665.25 300.905V300.03C665.25 296.634 665.906 293.603 667.219 290.937C668.531 288.249 670.385 286.187 672.781 284.749C675.198 283.291 677.948 282.562 681.031 282.562C685.656 282.562 689.292 284.02 691.938 286.937C694.604 289.853 695.938 293.989 695.938 299.343V303.03H674.406C674.698 305.239 675.573 307.009 677.031 308.343C678.51 309.676 680.375 310.343 682.625 310.343C686.104 310.343 688.823 309.082 690.781 306.562L695.219 311.53C693.865 313.447 692.031 314.947 689.719 316.03C687.406 317.093 684.844 317.624 682.031 317.624ZM681 289.874C679.208 289.874 677.75 290.478 676.625 291.687C675.521 292.895 674.812 294.624 674.5 296.874H687.062V296.155C687.021 294.155 686.479 292.614 685.438 291.53C684.396 290.426 682.917 289.874 681 289.874ZM709.406 283.187L709.688 287.093C712.104 284.072 715.344 282.562 719.406 282.562C722.99 282.562 725.656 283.614 727.406 285.718C729.156 287.822 730.052 290.968 730.094 295.155V316.999H721.062V295.374C721.062 293.457 720.646 292.072 719.812 291.218C718.979 290.343 717.594 289.905 715.656 289.905C713.115 289.905 711.208 290.989 709.938 293.155V316.999H700.906V283.187H709.406ZM747.781 274.874V283.187H753.562V289.812H747.781V306.687C747.781 307.937 748.021 308.832 748.5 309.374C748.979 309.916 749.896 310.187 751.25 310.187C752.25 310.187 753.135 310.114 753.906 309.968V316.812C752.135 317.353 750.312 317.624 748.438 317.624C742.104 317.624 738.875 314.426 738.75 308.03V289.812H733.812V283.187H738.75V274.874H747.781Z" fill="white"/>
<rect x="527.164" y="268.298" width="230.203" height="52.881" fill="#8A88FD" fill-opacity="0.24"/>
<ellipse cx="525.745" cy="334.222" rx="9.745" ry="8.71308" fill="#6B8CFB"/>
<rect x="525.592" y="267.82" width="3.4876" height="62.3658" fill="#6B8CFB"/>
<ellipse rx="10.8988" ry="9.74464" transform="matrix(1 0 0 -1 757.102 253.745)" fill="#6B8CFB"/>
<rect width="3.4876" height="62.3657" transform="matrix(1 0 0 -1 755.795 321.178)" fill="#6B8CFB"/>
<path d="M149 390.311C149 379.265 157.954 370.311 169 370.311H445V511.999H149V390.311Z" fill="white"/>
<path d="M149 295C149 283.954 157.954 275 169 275H334V355H149V295Z" fill="white"/>
<path d="M149 232C149 220.954 157.954 212 169 212H239.194V256.327H149V232Z" fill="white"/>
<path d="M990 387.311C990 376.265 981.046 367.311 970 367.311H694V508.999H990V387.311Z" fill="white"/>
<path d="M990 292C990 280.954 981.046 272 970 272H805V352H990V292Z" fill="white"/>
<path d="M990 229C990 217.954 981.046 209 970 209H899.806V253.327H990V229Z" fill="white"/>
</g>
<defs>
<clipPath id="clip0_2_120">
<rect width="1140" height="496" fill="white"/>
</clipPath>
</defs>
</svg>
